{
	"asset":{
		"generator":"Khronos glTF Blender I/O v4.0.43",
		"version":"2.0"
	},
	"scene":0,
	"scenes":[
		{
			"name":"Scene",
			"nodes":[
				0
			]
		}
	],
	"nodes":[
		{
			"mesh":0,
			"name":"Landscape",
			"scale":[
				100,
				100,
				100
			]
		}
	],
	"meshes":[
		{
			"name":"Landscape",
			"primitives":[
				{
					"attributes":{
						"POSITION":0,
						"NORMAL":1
					},
					"indices":2
				}
			]
		}
	],
	"accessors":[
		{
			"bufferView":0,
			"componentType":5126,
			"count":16384,
			"max":[
				1,
				0.2987356185913086,
				1
			],
			"min":[
				-1,
				0,
				-1
			],
			"type":"VEC3"
		},
		{
			"bufferView":1,
			"componentType":5126,
			"count":16384,
			"type":"VEC3"
		},
		{
			"bufferView":2,
			"componentType":5123,
			"count":96774,
			"type":"SCALAR"
		}
	],
	"bufferViews":[
		{
			"buffer":0,
			"byteLength":196608,
			"byteOffset":0,
			"target":34962
		},
		{
			"buffer":0,
			"byteLength":196608,
			"byteOffset":196608,
			"target":34962
		},
		{
			"buffer":0,
			"byteLength":193548,
			"byteOffset":393216,
			"target":34963
		}
	],
	"buffers":[
		{
			"byteLength":586764,
			"uri":"landscape.bin"
		}
	]
}
