{
	"asset":{
		"generator":"Khronos glTF Blender I/O v4.0.43",
		"version":"2.0"
	},
	"scene":0,
	"scenes":[
		{
			"name":"Scene",
			"nodes":[
				0
			]
		}
	],
	"nodes":[
		{
			"mesh":0,
			"name":"Cylinder"
		}
	],
	"materials":[
		{
			"doubleSided":true,
			"name":"Material",
			"pbrMetallicRoughness":{
				"baseColorFactor":[
					0.8001105785369873,
					0,
					0.03279019519686699,
					1
				],
				"metallicFactor":0,
				"roughnessFactor":0.5
			}
		}
	],
	"meshes":[
		{
			"name":"Cylinder",
			"primitives":[
				{
					"attributes":{
						"POSITION":0,
						"NORMAL":1,
						"TEXCOORD_0":2
					},
					"indices":3,
					"material":0
				}
			]
		}
	],
	"accessors":[
		{
			"bufferView":0,
			"componentType":5126,
			"count":2944,
			"max":[
				1,
				3,
				1
			],
			"min":[
				-1,
				-1,
				-1
			],
			"type":"VEC3"
		},
		{
			"bufferView":1,
			"componentType":5126,
			"count":2944,
			"type":"VEC3"
		},
		{
			"bufferView":2,
			"componentType":5126,
			"count":2944,
			"type":"VEC2"
		},
		{
			"bufferView":3,
			"componentType":5123,
			"count":4596,
			"type":"SCALAR"
		}
	],
	"bufferViews":[
		{
			"buffer":0,
			"byteLength":35328,
			"byteOffset":0,
			"target":34962
		},
		{
			"buffer":0,
			"byteLength":35328,
			"byteOffset":35328,
			"target":34962
		},
		{
			"buffer":0,
			"byteLength":23552,
			"byteOffset":70656,
			"target":34962
		},
		{
			"buffer":0,
			"byteLength":9192,
			"byteOffset":94208,
			"target":34963
		}
	],
	"buffers":[
		{
			"byteLength":103400,
			"uri":"Player.bin"
		}
	]
}
